PathFileType	4	(X/Y/Z)	C:/Users/opensim2020/Desktop/walking_exp_matlab/subject01_walking15_straight_03.trc																																																																																																																															
DataRate	CameraRate	NumFrames	NumMarkers	Units	OrigDataRate	OrigDataStartFrame	OrigNumFrames																																																																																																																											
100	100	4	43	mm	100	1636	145																																																																																																																											
Frame#	Time	LFHD			RFHD			LBHD			RBHD			C7			T10			CLAV			STRN			RBAK			LSHO			LUPA			LELB			LFRM			LWRA			LWRB			LFIN			RSHO			RUPA			RELB			RFRM			RWRA			RWRB			RFIN			LASI			RASI			LPSI			RPSI			LTHI			LKNE			LTIB			LANK			LHEE			LTOE			RTHI			RKNE			RTIB			RANK			RHEE			RTOE			*39			*40			*41			*42		
		X1	Y1	Z1	X2	Y2	Z2	X3	Y3	Z3	X4	Y4	Z4	X5	Y5	Z5	X6	Y6	Z6	X7	Y7	Z7	X8	Y8	Z8	X9	Y9	Z9	X10	Y10	Z10	X11	Y11	Z11	X12	Y12	Z12	X13	Y13	Z13	X14	Y14	Z14	X15	Y15	Z15	X16	Y16	Z16	X17	Y17	Z17	X18	Y18	Z18	X19	Y19	Z19	X20	Y20	Z20	X21	Y21	Z21	X22	Y22	Z22	X23	Y23	Z23	X24	Y24	Z24	X25	Y25	Z25	X26	Y26	Z26	X27	Y27	Z27	X28	Y28	Z28	X29	Y29	Z29	X30	Y30	Z30	X31	Y31	Z31	X32	Y32	Z32	X33	Y33	Z33	X34	Y34	Z34	X35	Y35	Z35	X36	Y36	Z36	X37	Y37	Z37	X38	Y38	Z38	X39	Y39	Z39	X40	Y40	Z40	X41	Y41	Z41	X42	Y42	Z42	X43	Y43	Z43
																																																																																																																																		
37	0.36	-342.78152	1646.71863	1391.00183	-312.61069	1659.9054	1499.44971	-458.44492	1612.79065	1419.94409	-429.17154	1625.36902	1535.54333	-502.24969	1424.84521	1465.81165	-560.93097	1135.53809	1497.25671	-361.93112	1348.04456	1473.55981	-332.52939	1189.57397	1481.11084	-570.74554	1244.50867	1555.29944	-417.05499	1373.55994	1311.36853	-454.05927	1190.08203	1234.55981	-481.96857	1041.14026	1236.04846	-451.19058	930.83734	1213.96375	-383.34091	809.52869	1234.85681	-437.47562	809.34027	1209.84338	-394.52295	738.35223	1198.02869	-421.73245	1399.90906	1620.48962	-523.24713	1224.49133	1727.36047	-539.75946	1098.02051	1741.42407	-501.12466	980.44641	1774.54883	-405.7009	876.06177	1755.31531	-447.06686	870.6814	1795.65771	-396.24893	801.39069	1796.82373	-394.57513	928.35706	1397.70728	-399.08221	924.065	1614.51465	-581.94025	934.75745	1450.20459	-580.15381	933.93408	1594.39819	-382.56641	595.90784	1345.99121	-370.50168	461.81003	1369.09912	-427.53937	279.65204	1369.07068	-467.99084	67.68822	1431.56116	-510.56064	38.81382	1488.15149	-324.52075	34.79478	1415.82568	-399.32617	592.26233	1690.23816	-371.71225	438.14059	1681.78748	-522.41675	350.00482	1677.64502	-678.98962	218.55493	1628.61084	-733.31665	225.2271	1571.0304	-631.38312	84.23379	1642.61633	-324.07285	1692.93433	1476.16833	1973.16223	1023.60242	-3102.03931	2012.52441	1022.06805	-3140.64819	NaN	NaN	NaN
38	0.37	-330.50687	1647.51892	1390.44922	-300.08624	1660.72168	1498.91125	-446.27444	1613.83826	1419.57117	-416.81863	1626.4021	1535.12781	-490.47427	1426.01929	1465.49316	-549.31494	1136.6283	1496.58801	-350.27332	1349.05737	1473.00391	-320.97726	1190.53662	1480.42285	-559.29395	1245.73132	1554.81311	-405.34348	1375.02173	1310.91577	-440.97757	1191.47534	1233.85901	-466.53381	1041.61218	1235.05457	-431.18512	932.16406	1213.87952	-358.08459	814.44489	1236.39465	-412.31598	811.36182	1210.8656	-366.03543	742.62408	1199.51733	-410.04901	1400.60327	1620.06104	-512.5285	1225.49036	1726.46606	-530.00177	1099.16089	1739.91125	-495.39206	980.51617	1773.32373	-403.86826	872.48438	1754.43713	-445.45554	868.8631	1794.78088	-397.52924	797.42786	1795.953	-383.47284	929.07904	1396.67517	-387.32596	925.69336	1613.23328	-570.54187	936.03973	1450.09192	-567.99274	935.58893	1594.29822	-375.77405	595.48938	1346.40784	-366.37759	461.26065	1369.50256	-426.06512	279.86154	1369.51929	-467.61499	67.93264	1431.82092	-510.4209	39.12201	1488.17749	-324.21939	34.59274	1415.68994	-380.30527	595.18597	1688.29724	-349.01447	441.8288	1679.50403	-497.06042	349.11185	1675.41272	-649.90741	212.86977	1626.66809	-705.13019	217.34894	1569.65161	-595.4494	80.97934	1640.0105	-311.67953	1693.72595	1475.54358	1973.09119	1023.62036	-3101.98389	2012.56079	1021.97552	-3140.77295	NaN	NaN	NaN
39	0.38	-318.40598	1648.27832	1390.07349	-287.78259	1661.42603	1498.4751	-434.11011	1614.7373	1419.30945	-404.47223	1627.27478	1534.86633	-478.64252	1426.86853	1465.01318	-537.66132	1137.60632	1495.77539	-338.60934	1349.93933	1472.54761	-309.42349	1191.35559	1479.75452	-547.75885	1246.80945	1554.26038	-393.5206	1376.3667	1310.60583	-428.07233	1192.83228	1233.04346	-451.07361	1042.10986	1234.00769	-411.32071	933.63629	1213.86377	-333.03241	819.63135	1237.28833	-386.48035	813.776	1212.18774	-337.64087	747.37317	1200.96619	-398.34088	1401.20166	1619.70056	-501.83588	1226.33179	1725.59692	-520.20129	1100.20605	1738.44519	-489.69025	980.60718	1772.047	-402.19138	869.20789	1753.77759	-444.09042	867.19604	1793.93481	-399.09308	793.81055	1795.25659	-372.11252	929.74457	1395.47461	-375.68274	927.24615	1612.07019	-559.02765	937.10571	1449.90149	-556.39447	937.60449	1594.42944	-369.27979	594.99445	1346.84412	-362.28647	460.57507	1369.92627	-424.33524	279.95016	1369.80603	-466.50613	67.91345	1432.20984	-510.27344	39.5076	1488.23999	-323.59229	34.2766	1415.52271	-361.48911	598.16821	1686.60168	-326.59354	445.39651	1677.0199	-471.72754	347.62198	1673.18616	-620.12585	206.28104	1624.80884	-675.89923	208.21149	1567.86267	-558.98492	77.66471	1637.90613	-299.35617	1694.47437	1475.12488	1973.13733	1023.48157	-3102.10669	2012.50293	1022.14423	-3140.65234	NaN	NaN	NaN
40	0.39	-306.37784	1648.87793	1389.8103	-275.77902	1661.93567	1498.06604	-422.06918	1615.57739	1419.19092	-392.27002	1627.99438	1534.68713	-466.83911	1427.69556	1464.66895	-526.04102	1138.45996	1494.90454	-326.9256	1350.75378	1472.14478	-297.77109	1192.13452	1479.23499	-536.18164	1247.71472	1553.60083	-381.78418	1377.62695	1310.26746	-415.24481	1194.07153	1232.26917	-435.98532	1042.5929	1232.99744	-391.41824	935.31061	1213.87097	-308.53912	825.1214	1238.68469	-361.23813	816.72113	1213.27795	-309.2905	752.74762	1202.59851	-386.70123	1401.72607	1619.38293	-491.0853	1227.1189	1724.8075	-510.36566	1101.10657	1736.99792	-484.05084	980.86499	1770.89026	-400.71323	866.10339	1753.21997	-442.88199	865.73328	1793.14197	-400.65009	790.6568	1794.78674	-361.43616	930.16217	1395.03015	-363.91174	928.7746	1611.0603	-547.42303	938.01025	1449.66919	-544.54926	938.88916	1594.28259	-362.80453	594.5293	1347.24072	-358.31287	459.9093	1370.37842	-422.12668	279.88022	1369.90881	-465.59238	68.10594	1432.56079	-510.0209	39.92181	1488.31519	-323.04575	33.87443	1415.38708	-342.79004	601.03589	1684.89392	-304.55359	448.91678	1674.64478	-446.13629	345.43423	1671.41138	-589.76917	198.84973	1622.88171	-645.92267	197.89256	1566.20081	-521.83411	74.16451	1636.36658	-287.1235	1695.06409	1474.8606	1973.12537	1023.55908	-3101.9834	2012.55005	1022.11206	-3140.64673	NaN	NaN	NaN
